# File created by Blade
# Date/Time:  Tue Jan 27 17:09:01 2015
#---------------------------------------------------------
:version 1.10
:name HOM
:units
  mass 1.0
  length 1.000000
  angle deg
:documentation
     Acclaim Skeleton File
:root
   axis xyz
   order TX TY TZ RX RY RZ
   position 0.000000 0.000000 0.000000
   orientation 0 0 0
:bonedata
   begin
      id 1
      name Spine_dum
      direction 0.000000 1.000000 0.000000
      length 7.539951
      axis 0.0 0.0 0.0 xyz
   end
   begin
      id 2
      name LeftUpLeg_dum
      direction 1.000000 0.000000 0.000000
      length 3.345476
      axis 0.0 0.0 0.0 xyz
   end
   begin
      id 3
      name RightUpLeg_dum
      direction -1.000000 0.000000 0.000000
      length 3.345476
      axis 0.0 0.0 0.0 xyz
   end
   begin
      id 4
      name Spine
      direction 0.000000 1.000000 0.000000
      length 0.000000
      axis 0.0 0.0 0.0 xyz
      dof rx ry rz
   end
   begin
      id 5
      name Spine_dum1
      direction 0.000000 1.000000 0.000000
      length 15.093809
      axis 0.0 0.0 0.0 xyz
   end
   begin
      id 6
      name Spine_dum2
      direction 0.000000 1.000000 0.000000
      length 9.738928
      axis 0.0 0.0 0.0 xyz
   end
   begin
      id 7
      name Spine_dum3
      direction 0.000000 1.000000 0.000000
      length 9.738928
      axis 0.0 0.0 0.0 xyz
   end
   begin
      id 8
      name Head
      direction 0.000000 1.000000 0.000000
      length 4.527550
      axis 0.0 0.0 0.0 xyz
      dof rx ry rz
   end
   begin
      id 9
      name LeftShoulder
      direction 1.000000 0.000000 0.000000
      length 7.084015
      axis 0.0 0.0 -90.0 xyz
      dof rx ry rz
   end
   begin
      id 10
      name LeftArm
      direction 1.000000 0.000000 0.000000
      length 10.259319
      axis 0.0 0.0 -90.0 xyz
      dof rx ry rz
   end
   begin
      id 11
      name LeftForeArm
      direction 1.000000 0.000000 0.000000
      length 9.896984
      axis 0.0 0.0 -90.0 xyz
      dof ry rz rx
   end
   begin
      id 12
      name LeftHand
      direction 0.000000 0.000000 0.000000
      length 0.000000
      axis 0.0 0.0 -90.0 xyz
      dof rx ry rz
   end
   begin
      id 13
      name LeftHand_dum1
      direction 0.000000 0.000000 0.000000
      length 0.000000
      axis 0.0 0.0 -90.0 xyz
   end
   begin
      id 14
      name LeftHand_dum2
      direction 1.000000 0.000000 0.000000
      length 3.937000
      axis 0.0 0.0 -90.0 xyz
   end
   begin
      id 15
      name LeftHandThumb1
      direction 0.000000 0.000000 1.000000
      length 3.937000
      axis 0.0 0.0 -90.0 xyz
      dof rx rz ry
   end
   begin
      id 16
      name RightShoulder
      direction -1.000000 0.000000 0.000000
      length 7.084015
      axis 0.0 0.0 90.0 xyz
      dof rx ry rz
   end
   begin
      id 17
      name RightArm
      direction -1.000000 0.000000 0.000000
      length 10.259319
      axis 0.0 0.0 90.0 xyz
      dof rx ry rz
   end
   begin
      id 18
      name RightForeArm
      direction -1.000000 0.000000 0.000000
      length 9.896984
      axis 0.0 0.0 90.0 xyz
      dof ry rz rx
   end
   begin
      id 19
      name RightHand
      direction 0.000000 0.000000 0.000000
      length 0.000000
      axis 0.0 0.0 90.0 xyz
      dof rx ry rz
   end
   begin
      id 20
      name RightHand_dum1
      direction 0.000000 0.000000 0.000000
      length 0.000000
      axis 0.0 0.0 90.0 xyz
   end
   begin
      id 21
      name RightHand_dum2
      direction -1.000000 0.000000 0.000000
      length 3.937000
      axis 0.0 0.0 90.0 xyz
   end
   begin
      id 22
      name RightHandThumb1
      direction 0.000000 0.000000 1.000000
      length 3.937000
      axis 0.0 0.0 90.0 xyz
      dof rx rz ry
   end
   begin
      id 23
      name LeftUpLeg
      direction 0.000000 -1.000000 0.000000
      length 19.114733
      axis 0.0 0.0 0.0 xyz
      dof rx ry rz
   end
   begin
      id 24
      name LeftLeg
      direction 0.000000 -1.000000 0.000000
      length 16.045604
      axis 0.0 0.0 0.0 xyz
      dof rx ry rz
   end
   begin
      id 25
      name LeftFoot
      direction 0.000000 -0.258819 0.965926
      length 5.543155
      axis 15.0 0.0 0.0 xyz
      dof rx ry rz
   end
   begin
      id 26
      name LeftToeBase
      direction 0.000000 0.000000 1.000000
      length 2.952750
      axis 0.0 0.0 0.0 xyz
      dof rx ry rz
   end
   begin
      id 27
      name RightUpLeg
      direction 0.000000 -1.000000 0.000000
      length 19.114733
      axis 0.0 0.0 0.0 xyz
      dof rx ry rz
   end
   begin
      id 28
      name RightLeg
      direction 0.000000 -1.000000 0.000000
      length 16.045604
      axis 0.0 0.0 0.0 xyz
      dof rx ry rz
   end
   begin
      id 29
      name RightFoot
      direction 0.000000 -0.258819 0.965926
      length 5.543155
      axis 15.0 0.0 0.0 xyz
      dof rx ry rz
   end
   begin
      id 30
      name RightToeBase
      direction 0.000000 0.000000 1.000000
      length 2.952750
      axis 0.0 0.0 0.0 xyz
      dof rx ry rz
   end
:hierarchy
   begin
      root Spine_dum LeftUpLeg_dum RightUpLeg_dum
      Spine_dum Spine
      LeftUpLeg_dum LeftUpLeg
      RightUpLeg_dum RightUpLeg
      Spine Spine_dum1 Spine_dum2 Spine_dum3
      Spine_dum1 Head
      Spine_dum2 LeftShoulder
      Spine_dum3 RightShoulder
      LeftShoulder LeftArm
      LeftArm LeftForeArm
      LeftForeArm LeftHand
      LeftHand LeftHand_dum1 LeftHand_dum2
      LeftHand_dum1 LeftHandThumb1
      RightShoulder RightArm
      RightArm RightForeArm
      RightForeArm RightHand
      RightHand RightHand_dum1 RightHand_dum2
      RightHand_dum1 RightHandThumb1
      LeftUpLeg LeftLeg
      LeftLeg LeftFoot
      LeftFoot LeftToeBase
      RightUpLeg RightLeg
      RightLeg RightFoot
      RightFoot RightToeBase
   end

# File created by Blade
# Date/Time:  Tue Jan 27 17:08:52 2015
# Frame Rate: 120.000 fps
#------------------------------------------------------
:FULLY-SPECIFIED
:DEGREES
1620
root -2.691058 35.529171 1.645492 1.940322 8.851651 -5.083291
Spine 4.822493 11.949187 12.258760
Head -5.033106 -9.072629 -7.245439
LeftShoulder -5.437784 -6.637462 2.663193
LeftArm -6.027535 -20.140091 -48.840180
LeftForeArm 11.930217 -0.000000 107.453709
LeftHand -12.678778 -0.000000 29.306697
LeftHandThumb1 -26.253704 0.000000 33.147579
RightShoulder 1.874047 -21.589512 -6.971252
RightArm 17.012739 -15.138298 62.708928
RightForeArm 215.327949 0.000000 27.744932
RightHand 0.427532 0.000000 5.762482
RightHandThumb1 -24.326973 -0.000000 -32.862282
LeftUpLeg -16.120417 9.397418 11.036154
LeftLeg 41.471557 -0.000000 -0.000000
LeftFoot -35.144153 6.148910 -9.255266
LeftToeBase 11.354095 -0.000000 -0.000000
RightUpLeg -17.145875 -11.994738 3.396932
RightLeg 36.646169 -0.000000 -0.000000
RightFoot -20.776588 5.057139 8.818912
RightToeBase -1.053773 -0.000000 0.000000
1621
root -2.718901 35.533654 1.661238 1.890136 8.482217 -4.934066
Spine 5.142482 12.053789 12.159545
Head -5.133875 -8.925606 -7.135004
LeftShoulder -5.414388 -6.617264 2.800121
LeftArm -6.147405 -20.291164 -48.976577
LeftForeArm 12.383475 0.000000 107.451149
LeftHand -13.260377 -0.000000 29.931688
LeftHandThumb1 -26.253704 0.000000 33.147579
RightShoulder 2.085901 -21.296948 -7.165674
RightArm 17.182802 -14.973510 62.788819
RightForeArm 215.046234 -0.000000 27.721606
RightHand 0.271079 -0.000000 6.096130
RightHandThumb1 -24.326973 -0.000000 -32.862282
LeftUpLeg -16.127052 9.111967 10.736238
LeftLeg 41.633517 -0.000000 -0.000000
LeftFoot -35.134388 3.639480 -10.395637
LeftToeBase 11.108745 -0.000000 -0.000000
RightUpLeg -17.209071 -12.507471 3.286106
RightLeg 36.896242 -0.000000 -0.000000
RightFoot -20.567518 5.683875 8.496942
RightToeBase -1.305584 -0.000000 0.000000
1622
root -2.751280 35.545955 1.664816 1.882885 7.996540 -4.840098
Spine 5.451395 12.264521 12.106889
Head -5.245668 -8.726657 -7.032852
LeftShoulder -5.387213 -6.676990 2.933433
LeftArm -6.396850 -20.588022 -49.056176
LeftForeArm 12.236048 -0.000000 107.379557
LeftHand -12.759222 0.000000 29.475859
LeftHandThumb1 -26.253704 0.000000 33.147579
RightShoulder 2.288517 -21.028891 -7.343192
RightArm 17.368014 -14.902862 62.808665
RightForeArm 214.861184 -0.000000 27.792712
RightHand 0.109861 -0.000000 6.717980
RightHandThumb1 -24.326973 -0.000000 -32.862282
LeftUpLeg -16.151182 8.991914 10.473525
LeftLeg 41.726735 -0.000000 -0.000000
LeftFoot -34.905738 1.129158 -11.568655
LeftToeBase 11.066359 -0.000000 -0.000000
RightUpLeg -17.311634 -12.922520 3.265319
RightLeg 37.046763 -0.000000 -0.000000
RightFoot -20.278246 6.212665 8.097936
RightToeBase -1.603377 -0.000000 0.000000
1623
root -2.776711 35.565523 1.672397 1.850587 7.617899 -4.777894
Spine 5.727435 12.333452 12.120320
Head -5.291270 -8.539498 -6.992041
LeftShoulder -5.379333 -6.667466 2.971054
LeftArm -6.537945 -20.758789 -49.089534
LeftForeArm 12.651431 -0.000000 107.341868
LeftHand -13.168107 -0.000000 29.891427
LeftHandThumb1 -26.253704 0.000000 33.147579
RightShoulder 2.536010 -20.786776 -7.556509
RightArm 17.485373 -14.785259 62.869027
RightForeArm 214.699482 -0.000000 27.910326
RightHand 0.001238 -0.000000 7.219163
RightHandThumb1 -24.326973 -0.000000 -32.862282
LeftUpLeg -16.147047 8.808614 10.212701
LeftLeg 41.701024 -0.000000 -0.000000
LeftFoot -34.420452 -1.506544 -12.639371
LeftToeBase 10.753634 -0.000000 -0.000000
RightUpLeg -17.291201 -13.077922 3.246009
RightLeg 37.028754 -0.000000 -0.000000
RightFoot -20.021621 6.530432 7.890376
RightToeBase -1.822641 -0.000000 0.000000
1624
root -2.794479 35.591128 1.678255 1.834996 7.250398 -4.723108
Spine 5.956665 12.414651 12.136467
Head -5.287946 -8.367482 -6.901028
LeftShoulder -5.381316 -6.672049 2.996382
LeftArm -6.678247 -20.894203 -49.081292
LeftForeArm 12.672105 0.000000 107.319054
LeftHand -13.345821 -0.000000 30.109339
LeftHandThumb1 -26.253704 0.000000 33.147579
RightShoulder 2.681449 -20.637902 -7.708845
RightArm 17.702411 -14.763264 62.824905
RightForeArm 214.767978 -0.000000 28.050244
RightHand -0.296288 -0.000000 7.821611
RightHandThumb1 -24.326973 -0.000000 -32.862282
LeftUpLeg -16.133393 8.606622 9.938739
LeftLeg 41.632726 -0.000000 -0.000000
LeftFoot -33.920318 -3.958061 -13.788073
LeftToeBase 10.899892 -0.000000 -0.000000
RightUpLeg -17.232826 -13.093488 3.224599
RightLeg 36.893439 -0.000000 -0.000000
RightFoot -19.765028 6.718821 7.733231
RightToeBase -2.038127 -0.000000 0.000000
1625
root -2.805080 35.623358 1.684732 1.835557 6.898113 -4.681091
Spine 6.144409 12.471157 12.179400
Head -5.268653 -8.126729 -6.880398
LeftShoulder -5.404044 -6.672124 2.973393
LeftArm -6.802975 -21.042153 -49.047297
LeftForeArm 12.753321 0.000000 107.220114
LeftHand -13.290682 -0.000000 30.192572
LeftHandThumb1 -26.253704 0.000000 33.147579
RightShoulder 2.834818 -20.456528 -7.865507
RightArm 17.808960 -14.744469 62.832004
RightForeArm 214.761202 -0.000000 28.249167
RightHand -0.470917 -0.000000 8.387582
RightHandThumb1 -24.326973 -0.000000 -32.862282
LeftUpLeg -16.119452 8.444954 9.639785
LeftLeg 41.531630 -0.000000 -0.000000
LeftFoot -33.449576 -6.013337 -14.729506
LeftToeBase 10.906455 -0.000000 -0.000000
RightUpLeg -17.157527 -12.887125 3.210468
RightLeg 36.690372 -0.000000 -0.000000
RightFoot -19.488184 6.708446 7.745257
RightToeBase -2.249397 -0.000000 0.000000
1626
root -2.816554 35.658827 1.685355 1.913478 6.534460 -4.668599
Spine 6.222078 12.556005 12.221783
Head -5.230968 -8.008515 -6.852657
LeftShoulder -5.456902 -6.673985 2.945122
LeftArm -6.900008 -21.158434 -48.969731
LeftForeArm 12.661828 -0.000000 107.168038
LeftHand -13.403926 -0.000000 30.260391
LeftHandThumb1 -26.253704 0.000000 33.147579
RightShoulder 2.927530 -20.323382 -8.013393
RightArm 17.978931 -14.776199 62.852368
RightForeArm 214.924545 -0.000000 28.415441
RightHand -0.643035 0.000000 8.905222
RightHandThumb1 -24.326973 -0.000000 -32.862282
LeftUpLeg -16.184726 8.387276 9.338845
LeftLeg 41.425694 -0.000000 -0.000000
LeftFoot -33.171924 -7.645781 -15.097286
LeftToeBase 11.145267 -0.000000 -0.000000
RightUpLeg -17.149576 -12.533298 3.234236
RightLeg 36.438696 -0.000000 -0.000000
RightFoot -19.207946 6.641002 7.786860
RightToeBase -2.389254 -0.000000 0.000000
1627
root -2.813808 35.698695 1.683635 2.001844 6.202520 -4.604183
Spine 6.274740 12.628643 12.228853
Head -5.162783 -7.814429 -6.841077
LeftShoulder -5.481309 -6.708248 2.855826
LeftArm -7.036890 -21.296998 -48.825577
LeftForeArm 12.377212 -0.000000 107.032764
LeftHand -12.924235 0.000000 30.129221
LeftHandThumb1 -26.253704 0.000000 33.147579
RightShoulder 2.983610 -20.219756 -8.118436
RightArm 18.095184 -14.840775 62.810584
RightForeArm 215.111844 -0.000000 28.665515
RightHand -0.864826 -0.000000 9.337090
RightHandThumb1 -24.326973 -0.000000 -32.862282
LeftUpLeg -16.238948 8.259733 8.948975
LeftLeg 41.251120 -0.000000 -0.000000
LeftFoot -32.861565 -8.862923 -15.268115
LeftToeBase 10.734790 -0.000000 -0.000000
RightUpLeg -17.147707 -12.261924 3.196673
RightLeg 36.181142 -0.000000 -0.000000
RightFoot -18.915205 6.531355 7.784236
RightToeBase -2.602751 -0.000000 0.000000
1628
root -2.812806 35.740680 1.676989 2.146502 5.861098 -4.559564
Spine 6.240575 12.742223 12.215888
Head -5.055306 -7.729979 -6.814163
LeftShoulder -5.496781 -6.729752 2.829874
LeftArm -7.146831 -21.294470 -48.749383
LeftForeArm 12.637077 -0.000000 107.007945
LeftHand -13.558818 -0.000000 30.442104
LeftHandThumb1 -26.253704 0.000000 33.147579
RightShoulder 2.989581 -20.183796 -8.178432
RightArm 18.242095 -14.912264 62.758242
RightForeArm 215.291718 -0.000000 28.937679
RightHand -1.059954 -0.000000 9.705193
RightHandThumb1 -24.326973 -0.000000 -32.862282
LeftUpLeg -16.347684 8.234574 8.557435
LeftLeg 41.065916 -0.000000 -0.000000
LeftFoot -32.594528 -9.871664 -15.615447
LeftToeBase 10.416867 -0.000000 -0.000000
RightUpLeg -17.201237 -11.923449 3.198753
RightLeg 35.891675 -0.000000 -0.000000
RightFoot -18.574069 6.380446 7.822277
RightToeBase -2.838765 -0.000000 0.000000
1629
root -2.798937 35.785358 1.670947 2.258123 5.550928 -4.463968
Spine 6.240541 12.854103 12.168766
Head -4.950489 -7.630693 -6.786866
LeftShoulder -5.436486 -6.779654 2.642924
LeftArm -7.248275 -21.492014 -48.434876
LeftForeArm 12.300656 -0.000000 106.895521
LeftHand -13.181912 -0.000000 30.187495
LeftHandThumb1 -26.253704 0.000000 33.147579
RightShoulder 2.944301 -20.137684 -8.190024
RightArm 18.360780 -15.001564 62.682331
RightForeArm 215.436409 -0.000000 29.234171
RightHand -1.143877 -0.000000 9.982387
RightHandThumb1 -24.326973 -0.000000 -32.862282
LeftUpLeg -16.399698 8.243011 8.100212
LeftLeg 40.838679 -0.000000 -0.000000
LeftFoot -32.378280 -10.821263 -16.069347
LeftToeBase 10.620846 -0.000000 -0.000000
RightUpLeg -17.230934 -11.655175 3.122836
RightLeg 35.637680 -0.000000 -0.000000
RightFoot -18.225788 6.224052 7.808291
RightToeBase -3.089216 -0.000000 0.000000
1630
root -2.777721 35.831355 1.663069 2.374876 5.277691 -4.367851
Spine 6.214730 12.905138 12.137084
Head -4.841366 -7.545926 -6.806791
LeftShoulder -5.434472 -6.773829 2.564478
LeftArm -7.330273 -21.603210 -48.344836
LeftForeArm 12.219153 -0.000000 106.841085
LeftHand -13.257158 -0.000000 30.323232
LeftHandThumb1 -26.253704 0.000000 33.147579
RightShoulder 2.885590 -20.111241 -8.227996
RightArm 18.477887 -15.055105 62.628443
RightForeArm 215.585204 0.000000 29.537172
RightHand -1.158472 -0.000000 10.032578
RightHandThumb1 -24.326973 -0.000000 -32.862282
LeftUpLeg -16.458288 8.233105 7.617136
LeftLeg 40.609886 -0.000000 -0.000000
LeftFoot -32.222246 -11.465758 -16.176718
LeftToeBase 10.479636 -0.000000 -0.000000
RightUpLeg -17.268481 -11.441580 3.037644
RightLeg 35.386483 -0.000000 -0.000000
RightFoot -17.854547 6.098720 7.800874
RightToeBase -3.444037 -0.000000 0.000000
1631
root -2.754154 35.877840 1.656584 2.476447 5.028049 -4.286150
Spine 6.176777 12.964378 12.112485
Head -4.700617 -7.447588 -6.817664
LeftShoulder -5.409031 -6.733087 2.561401
LeftArm -7.406045 -21.697023 -48.406583
LeftForeArm 12.256603 -0.000000 106.780730
LeftHand -13.213868 0.000000 30.413915
LeftHandThumb1 -26.253704 0.000000 33.147579
RightShoulder 2.827800 -20.122588 -8.210320
RightArm 18.520003 -15.083799 62.542265
RightForeArm 215.555861 -0.000000 29.904775
RightHand -1.255988 -0.000000 10.042877
RightHandThumb1 -24.326973 -0.000000 -32.862282
LeftUpLeg -16.510968 8.228365 7.139696
LeftLeg 40.375271 -0.000000 -0.000000
LeftFoot -31.989512 -12.044688 -16.161065
LeftToeBase 9.913993 -0.000000 -0.000000
RightUpLeg -17.288799 -11.214486 2.959384
RightLeg 35.139373 -0.000000 -0.000000
RightFoot -17.492007 5.923549 7.781116
RightToeBase -3.666834 -0.000000 0.000000
